<svg viewBox="-153 -46 604 180" width="604" height="180" xmlns="http://www.w3.org/2000/svg">
   <path
      d="M4.4-10.8c.1 1.1 0 2.2-.4 3.2C2.7-5.7.1-5.2-1.8-6.5c-.5-.3-.8-.7-1.2-1.2-.4-1-.5-2.1-.4-3.2v-11.3h-3.7v11.4c-.2 1.9.2 3.7 1 5.4C-3-1.8 2.4-1.3 6-4.4c.4-.3.7-.7 1-1 .8-1.7 1.2-3.5 1-5.4v-11.4H4.3v11.4zm27.7-4.7v6.3c-.3-.6-.8-1.3-1.1-1.8l-7.3-10.9-.1-.1h-3.4v19.5h3.7v-6.6-6.5c.2.4.5.9.9 1.4l7.5 11.5.1.1h3.4v-19.5h-3.7zm16-6.6h3.7v19.5h-3.7zm23.3 13l-.5 1.9c-.1-.6-.3-1.2-.5-1.9l-3.9-13h-3.9l6 19.3v.1h4.3l6.3-19.5h-3.8zM93.1-11h9.1v-3.4h-9.1v-4.4h10v-3.4H89.4v19.5h14.5v-3.4H93.2c-.1.1-.1-4.9-.1-4.9zm34.1-.3c1.7-1 2.6-2.9 2.6-4.8.1-2.1-1-4-2.8-5-1.5-.7-3.2-1-4.9-.9h-7.2v19.5h3.7v-7.7h3.2l4.4 7.7h4.4l-4.8-8.1c.6-.2 1-.5 1.4-.7zm-8.5-7.5h3.5c.9-.1 1.8.1 2.6.4.8.4 1.3 1.3 1.2 2.2 0 .9-.4 1.8-1.2 2.2-.8.3-1.7.4-2.6.4h-3.5zm31 4.8l-2.3-.5c-2.3-.5-3-1-3-2.3 0-1.5 1.3-2.4 3.3-2.4 1.9 0 3.6.8 4.8 2.2l.1.1 2.8-2.3-.1-.1c-1.9-2.1-4.7-3.3-7.6-3.2-4.3 0-7.4 2.5-7.4 5.9 0 3.9 3.1 5.1 5.9 5.7l2.6.6c1.9.4 3.1 1 3.1 2.3 0 1.5-1.4 2.4-3.7 2.4-2.2 0-4.3-1-5.5-2.8l-.1-.2-3.1 2.2.1.1c2 2.6 5.2 4.1 8.5 4 4.8 0 7.8-2.4 7.8-6.1.1-3.4-2.3-4.7-6.2-5.6zm17.5-8.1h3.7v19.5h-3.7zm14.2 3.4h5.6v16.1h3.7v-16.1h5.6v-3.4h-14.9v3.4zm32.2 4.6l-4.8-8h-4.3l7.1 11.5v7.9h3.7v-7.9l7.5-11.5h-4.3zm39.4-8.3c-5.5 0-9.2 4-9.2 10.1 0 6.2 3.5 10.1 9.2 10.1 5.7 0 9.2-3.9 9.2-10.1 0-6.1-3.7-10.1-9.2-10.1zm0 3.3c3.2 0 5.2 2.6 5.2 6.7 0 4.2-1.9 6.7-5.2 6.7-3.3 0-5.2-2.5-5.2-6.7 0-4.1 2-6.7 5.2-6.7zm32.2.4v-3.4h-12.7v19.5h3.7v-8.1h8.6v-3.4h-8.6v-4.6zM.8 48.9h-7.9V13.6H.7v35.3zM17 13.6v28.3h14.1V49h-22V13.7H17zm27.3 0v28.3h14.1V49h-22V13.7h7.9zm27.2 35.3h-7.8V13.6h7.8zm24.9-21.5c1.8 3 3.5 6 5.2 9h.1s-.3-7-.3-11.1V13.5h7.7v35.3h-7.9l-8.4-13.6c-2-3.3-5.4-9.5-5.4-9.5h-.1s.4 5.9.4 11.5v11.6h-7.8V13.5h7.9zM132.9 13c10.4 0 17.1 7.4 17.1 18.3 0 10.8-6.2 18.3-17.1 18.3-10.8 0-17.1-7.5-17.1-18.3 0-10.9 6.7-18.3 17.1-18.3zm0 29.9c6 0 9.2-4.3 9.2-11.7 0-7.4-3.4-11.8-9.2-11.8-5.9 0-9.2 4.5-9.2 11.8 0 7.3 3.2 11.7 9.2 11.7zm31.8 6h-7.8V13.6h7.8zm30-25.6c-2.4-2.4-5.7-3.8-9.1-3.8-3.3 0-5.6 1.4-5.6 3.6 0 2.3 1.6 3.2 4.8 3.8l5.7 1.1c6.5 1.3 10.6 3.9 10.6 10.1 0 7.3-6.5 11.4-14.9 11.4-6.2.1-12-2.6-15.9-7.4l5.5-4.7c2.5 3.4 6.5 5.5 10.7 5.5 4.1 0 6.5-1.6 6.5-4.2 0-2.4-2.1-3.1-5.3-3.7l-4.6-.9c-6.4-1.2-11.3-3.6-11.3-10.5 0-6.3 5.9-10.8 13.6-10.8 5.3-.2 10.5 1.8 14.2 5.6zm55.8 17.9c-2.6 5.2-7.2 8.4-14.3 8.4-10.5 0-16.9-7.5-16.9-18.3 0-10.9 6.6-18.3 16.9-18.3 6.3-.3 12.1 3.3 14.6 9l-6.5 2.8c-1.2-3.3-4.4-5.5-7.9-5.4-5.8 0-9.1 4.5-9.1 11.8 0 7.3 3.2 11.7 9.1 11.7 3.4.2 6.5-1.7 7.8-4.8zm13.7-6.9v14.6h-7.8V13.6h7.8v13.6h13.1V13.6h7.8v35.3h-7.8V34.3zm37.3 14.6h-7.8V13.6h7.8zm38-7.7c-2.6 5.2-7.2 8.4-14.3 8.4-10.5 0-16.9-7.5-16.9-18.3 0-10.9 6.6-18.3 16.9-18.3 6.3-.3 12.1 3.3 14.6 9l-6.5 2.8c-1.2-3.3-4.4-5.5-7.9-5.4-5.8 0-9.1 4.5-9.1 11.8 0 7.3 3.2 11.7 9.1 11.7 3.4.2 6.5-1.7 7.8-4.8zm10.9 7.7h-8.3L354 13.6h9.5l11.8 35.3h-8.4l-2.1-7h-12.4zm9.5-23.4c-.6-2.2-1.2-4.6-1.2-4.6h-.1s-.6 2.3-1.3 4.6l-3 9.9h8.5zM394.3 13c6.3-.3 12.1 3.3 14.6 9l-6.5 2.8c-1.2-3.3-4.4-5.5-7.9-5.4-5.8 0-9.2 4.5-9.2 11.8 0 7.5 3.3 12 9.2 12 5.1 0 7.5-3.3 7.9-7.5h-10v-6.9h16.8v20.1h-6.9v-3.1c-2.4 2.5-5.7 3.9-9.2 3.7-9.7 0-15.6-7.5-15.6-18.3-.1-10.8 6.5-18.2 16.8-18.2zm37.7 0c10.4 0 17.1 7.4 17.1 18.3 0 10.8-6.2 18.3-17.1 18.3-10.8 0-17.1-7.5-17.1-18.3 0-10.9 6.6-18.3 17.1-18.3zm0 29.9c6 0 9.2-4.3 9.2-11.7 0-7.4-3.4-11.8-9.2-11.8-5.9 0-9.2 4.5-9.2 11.8 0 7.3 3.1 11.7 9.2 11.7z"
      fill="#001e62" />
   <path
      d="M-93.5-44c-31.7 0-57.5 25.7-57.5 57.5S-125.3 71-93.5 71C-61.8 71-36 45.3-36 13.5-36-18.2-61.7-44-93.5-44zM-126 24.2c1.2 1.2 2.8 1.7 4.4 1.5 1.6.2 3.2-.4 4.4-1.5 1-1.6 1.5-3.4 1.3-5.3V-3.5h11.3v22.2c0 5.2-.6 7.8-2 10.3-2.5 4.1-9.1 5.7-14.9 5.7-5.8 0-12.4-1.6-14.9-5.7-1.5-2.5-2-5.1-2-10.3V-3.5h11.3v22.4c-.3 1.9.1 3.7 1.1 5.3zm28.2 9.8V-3.5h11.2V34zm35.4.7c-11.9 0-18.6-7.9-18.6-19.4 0-11.5 7.2-19.4 18.9-19.4 8.9 0 14.2 5.1 16.1 10l-9.8 4.7c-.9-3.6-3-5.8-6.5-5.8-4.8 0-7.2 4-7.2 10.5s2.4 10.3 7.2 10.3c2.9.1 5.6-1.8 6.3-4.7l10.2 3.6c-2.8 6-8.1 10.2-16.6 10.2z"
      fill="#d50032"
   />
   <text
      x="-153.755"
      y="125.585"
      font-weight="400"
      font-size="36.169"
      font-family="Arial"
      fill="#001e62"
   >
      Nondestructive Evaluation Laboratory
   </text>
</svg>