<svg xmlns="http://www.w3.org/2000/svg" width="215" height="78.83" viewBox="0 0 639.636 228.602">
  <path
    d="M422.515 76.062v16.75c0 9.75-4 16.502-15.251 16.502-10.501 0-15.101-5.55-14.951-13.25V76.063l-4.9-.85v-1.7h14.7v1.7l-4.9.85v18.15c-.15 7.45 2.8 12.352 10.452 12.352 2.5 0 6.5-.95 8.9-3.9 1.95-2.35 1.95-6.75 1.95-9.45V76.064l-4.9-.85v-1.7h13.8v1.7zM436.078 106.064l4.25.85v1.5h-12.751v-1.5l4.25-.85V88.413c-1.35-.65-2.9-.9-4.35-.9v-1.5c2.4-.3 5.4-1.1 7.45-2l1.15.35v3.75c2.4-1.75 4.75-3.45 5.35-3.7.5-.2 1.35-.4 1.85-.4 6.65 0 8.552 2.9 8.552 7.85v14.202l4.25.85v1.5h-12.751v-1.5l4.25-.85V95.864c0-4.1.15-8.55-5.05-8.55-2.351 0-4.55.95-6.45 2.3zM458.807 108.414v-1.5l4.9-.85V88.413c-1.35-.65-2.9-.9-4.35-.9v-1.5c2.399-.3 5.399-1.1 7.45-2l1.149.35v21.7l4.9.85v1.5zm6.75-30.302c-1.25 0-2.45-1.1-2.45-2.35 0-1.3 1.05-2.65 2.45-2.65 1.45 0 2.55 1.25 2.55 2.65 0 1.35-1.25 2.35-2.55 2.35zM485.017 84.563v1.5l-4.1.85 6.1 16 6.2-16-4.05-.85v-1.5h9.95v1.5l-3.15.85-8.95 22.05h-2l-8.95-22.05-3.4-.85v-1.5zM504.507 93.713c0 6.55 2.55 11.95 9.05 11.95 3.05 0 5.45-2.2 7.4-4.25l1.1 1.1-5.85 5.9c-.35.2-2.15.55-4.7.55-6.2 0-11.101-4.45-11.101-12.55 0-7.95 4.95-12.4 11.1-12.4 5.202 0 9.102 3.5 9.102 7.7 0 1.9-.5 2-2 2zm11.75-1.5c.2-3.7-1.45-6.7-5.5-6.7-3.65 0-5.9 3.4-6.15 6.7zM532.022 84.363v6.25l.9-1.4c1.1-2.05 3.15-5.4 5.8-5.4 1.05 0 1.6.4 2.4 1l-.65 3.9-.65.15c-.55-.4-1.7-.95-2.35-.95-2.9 0-5.45 5.05-5.45 5.95v12.202l5.25.85v1.5h-14.101v-1.5l4.6-.85V88.414c-1.35-.65-2.9-.9-4.35-.9v-1.5c2.4-.3 5.4-1.1 7.45-2zM559.117 91.663h-1.751c0-3.2-1.7-5.851-5.2-5.851-2.55 0-4.75 1.2-4.75 3.95 0 5.5 13.5 2.5 13.5 11.3 0 5.3-4.6 7.9-9.45 7.9-2.55 0-5.15-.5-7.45-1.65l-.7-6.9h1.95c.1 3.85 2.45 6.75 6.45 6.75 2.75 0 5.45-1.3 5.45-4.3 0-6.45-13.3-2.7-13.3-11.85 0-4.4 4.05-7 8.2-7 2.7 0 5.05.65 7.15 2.35zM563.27 108.414v-1.5l4.9-.85V88.413c-1.35-.65-2.9-.9-4.35-.9v-1.5c2.399-.3 5.399-1.1 7.45-2l1.149.35v21.7l4.9.85v1.5zm6.75-30.302c-1.25 0-2.45-1.1-2.45-2.35 0-1.3 1.05-2.65 2.45-2.65 1.45 0 2.55 1.25 2.55 2.65 0 1.35-1.25 2.35-2.55 2.35zM578.11 86.913c3.2-1.3 5.7-4.55 6.65-8h1.199v7h7.5v2.5h-7.5v12.15c-.1 3.55 1.1 5.2 4 5.25 1.5 0 2.7-1.05 3.85-2.15l.7 1.2-3 3.05c-1.05 1.05-2.65.9-4 .9-2.85 0-5.8-1.45-5.8-6.25v-14.15h-3.6v-1.5zM611.36 91.663c0-3.85-1.25-5-3.5-5-3.251 0-4.4 2.8-4.251 5.4.05.6-.4.55-.85.65l-3 .6-.351-.2.2-3.15c.05-.85 2.15-2 2.75-2.35l5.9-3.35c.55-.3 1.2-.25 1.8-.25 3.2 0 5.55 1.75 5.55 6.15v14.6l4.102.85v1.2a53.79 53.79 0 00-8.201 2.15l-.35-.4.15-3.2c-2.501 1.9-5.251 3.6-8.501 3.6a5.1 5.1 0 01-5.25-4.95c0-4.15 3.2-5.25 5.45-5.95 3-.95 5.8-2 8.35-2.75v-3.65zm-7.6-17.051c1.4 0 2.6 1.2 2.6 2.6 0 1.4-1.2 2.55-2.6 2.55a2.56 2.56 0 01-2.55-2.55c0-1.4 1.149-2.6 2.55-2.6zm7.6 22.052c-4.601 2.3-9.301 3.05-9.301 6.55 0 1.8 1.65 2.95 3.65 2.95 1.55 0 4.05-1.25 5.65-2.2v-7.3zm1.1-16.902c-1.4 0-2.65-1.15-2.65-2.55s1.25-2.601 2.65-2.601 2.5 1.25 2.5 2.6-1.15 2.55-2.5 2.55zM620.57 86.913c3.2-1.3 5.7-4.55 6.65-8h1.199v7h7.5v2.5h-7.5v12.15c-.1 3.55 1.1 5.2 4 5.25 1.5 0 2.7-1.05 3.85-2.15l.7 1.2-3 3.05c-1.05 1.05-2.65.9-4 .9-2.85 0-5.8-1.45-5.8-6.25v-14.15h-3.6v-1.5zM398.513 148.863l-3.7 10.4 4.9.85v1.7h-12.501v-1.7l4.25-.85 13.052-33.102h2.55l13.75 33.102 4.25.85v1.7h-14.45v-1.7l4.9-.85-4.3-10.4zm1-2.5h10.65l-5.55-13.451zM444.943 140.313l-4.65-.85v-1.5h8.9v20.25l4.35.6v1.25c-2.8.5-5.5 1.35-8.15 2.2l-.45-.45v-3.7c-3.1 1.9-5.35 4.25-8.55 4.25-4.45 0-7.35-1.95-7.35-6.65v-15.4l-4.251-.85v-1.5h8.5v16.65c0 2.85 1.9 4.45 4.95 4.45 2.75 0 4.4-1.05 6.7-2.4zM461.622 160.364c-2.351-.9-4.7-3.2-3.65-5.9l4.55-2.15c-3.25-.85-5.35-3.55-5.35-6.951 0-5.3 3.7-7.95 8.8-7.95 1.9 0 3.8.6 5.6 1.15h1.302l5.05-.25c-.05-.2 1.3 2.1-.65 2.85-.6.25-2.85-.2-4.3-.55.95 1.3 1.35 2.6 1.35 4.15 0 5.3-4.75 8.25-9.65 7.9l-.95.5-2 1.25c.15 3.25 5.35 3.25 7.55 3.35 4.15.2 8.752 1.3 8.752 6.4 0 6.352-8.201 8.352-13.151 8.352-4.3 0-10.001-1.5-10.001-6.75 0-3.25 1.1-3.6 2.45-3.9zm12.7 4.95c0-3.5-5.25-4.25-8.1-4.25-3.001 0-7.651.75-7.651 4.75 0 4.2 4.15 5.2 7.55 5.2 3.352 0 8.2-1.75 8.2-5.7zm-13.2-21.251c0 3.05 1.55 7.1 5.15 7.1 2.85 0 4.15-2.75 4.1-5.2-.05-2.85-1.25-7.05-4.85-7.05-2.95 0-4.4 2.5-4.4 5.15zM496.264 145.063h-1.751c0-3.2-1.7-5.851-5.2-5.851-2.55 0-4.75 1.2-4.75 3.95 0 5.5 13.5 2.5 13.5 11.3 0 5.3-4.6 7.9-9.45 7.9-2.55 0-5.15-.5-7.45-1.65l-.7-6.9h1.95c.1 3.85 2.45 6.75 6.45 6.75 2.75 0 5.45-1.3 5.45-4.3 0-6.45-13.3-2.7-13.3-11.85 0-4.4 4.05-7 8.2-7 2.7 0 5.05.65 7.15 2.35zM503.602 162.514l-.9-.4c.25-3.4.6-6.55.6-9.8v-25.302c-1.35-.65-2.9-.9-4.35-.9v-1.5c2.4-.3 5.4-1.1 7.45-2l1.15.35v32.102c0 3.3 1.9 5.8 5.35 5.8 5.25 0 7-4.95 7-10.5 0-5.35-1.85-9.65-7.8-9.65-1.1 0-2.25.2-3.3.55l-.5-1.1 4.05-2.5c.8-.1 1.55-.25 2.35-.25 6.15 0 9.45 4.45 9.45 12.2 0 6.852-3.648 12.75-12.75 12.75-1.85 0-3.9-.75-5.5-1.7zM546.047 140.313l-4.65-.85v-1.5h8.9v20.25l4.35.6v1.25c-2.8.5-5.5 1.35-8.15 2.2l-.45-.45v-3.7c-3.1 1.9-5.35 4.25-8.55 4.25-4.45 0-7.35-1.95-7.35-6.65v-15.4l-4.251-.85v-1.5h8.5v16.65c0 2.85 1.9 4.45 4.95 4.45 2.75 0 4.4-1.05 6.7-2.4zM566.106 137.763v6.25l.9-1.4c1.1-2.05 3.15-5.4 5.8-5.4 1.05 0 1.6.4 2.4 1l-.65 3.9-.65.15c-.55-.4-1.7-.95-2.35-.95-2.9 0-5.45 5.05-5.45 5.95v12.202l5.25.85v1.5h-14.101v-1.5l4.6-.85v-17.651c-1.35-.65-2.9-.9-4.35-.9v-1.5c2.4-.3 5.4-1.1 7.45-2zM582.58 160.364c-2.35-.9-4.7-3.2-3.65-5.9l4.552-2.15c-3.251-.85-5.351-3.55-5.351-6.951 0-5.3 3.7-7.95 8.8-7.95 1.9 0 3.8.6 5.6 1.15h1.302l5.05-.25c-.05-.2 1.3 2.1-.65 2.85-.6.25-2.85-.2-4.3-.55.95 1.3 1.35 2.6 1.35 4.15 0 5.3-4.75 8.25-9.65 7.9l-.95.5-2 1.25c.15 3.25 5.35 3.25 7.55 3.35 4.15.2 8.752 1.3 8.752 6.4 0 6.352-8.201 8.352-13.151 8.352-4.3 0-10.001-1.5-10.001-6.75 0-3.25 1.1-3.6 2.45-3.9zm12.7 4.95c0-3.5-5.25-4.25-8.1-4.25-3 0-7.65.75-7.65 4.75 0 4.2 4.15 5.2 7.55 5.2 3.352 0 8.2-1.75 8.2-5.7zm-13.2-21.251c0 3.05 1.55 7.1 5.15 7.1 2.85 0 4.15-2.75 4.1-5.2-.05-2.85-1.25-7.05-4.85-7.05-2.95 0-4.4 2.5-4.4 5.15zM422.515 182.862v16.75c0 9.75-4 16.502-15.251 16.502-10.501 0-15.101-5.55-14.951-13.25v-20.001l-4.9-.85v-1.7h14.7v1.7l-4.9.85v18.15c-.15 7.45 2.8 12.352 10.452 12.352 2.5 0 6.5-.95 8.9-3.9 1.95-2.35 1.95-6.75 1.95-9.45v-17.151l-4.9-.85v-1.7h13.8v1.7zM436.078 212.864l4.25.85v1.5h-12.751v-1.5l4.25-.85v-17.651c-1.35-.65-2.9-.9-4.35-.9v-1.5c2.4-.3 5.4-1.1 7.45-2l1.15.35v3.75c2.4-1.75 4.75-3.45 5.35-3.7.5-.2 1.35-.4 1.85-.4 6.65 0 8.552 2.9 8.552 7.85v14.202l4.25.85v1.5h-12.751v-1.5l4.25-.85v-10.201c0-4.1.15-8.55-5.05-8.55-2.351 0-4.55.95-6.45 2.3zM458.807 215.214v-1.5l4.9-.85v-17.651c-1.35-.65-2.9-.9-4.35-.9v-1.5c2.399-.3 5.399-1.1 7.45-2l1.149.35v21.7l4.9.85v1.5zm6.75-30.302c-1.25 0-2.45-1.1-2.45-2.35 0-1.3 1.05-2.65 2.45-2.65 1.45 0 2.55 1.25 2.55 2.65 0 1.35-1.25 2.35-2.55 2.35zM485.017 191.362v1.5l-4.1.85 6.1 16 6.2-16-4.05-.85v-1.5h9.95v1.5l-3.15.85-8.95 22.05h-2l-8.95-22.05-3.4-.85v-1.5zM504.507 200.513c0 6.55 2.55 11.95 9.05 11.95 3.05 0 5.45-2.2 7.4-4.25l1.1 1.1-5.85 5.9c-.35.2-2.15.55-4.7.55-6.2 0-11.101-4.45-11.101-12.55 0-7.95 4.95-12.4 11.1-12.4 5.202 0 9.102 3.5 9.102 7.7 0 1.9-.5 2-2 2zm11.75-1.5c.2-3.7-1.45-6.7-5.5-6.7-3.65 0-5.9 3.4-6.15 6.7zM532.022 191.163v6.25l.9-1.4c1.1-2.05 3.15-5.4 5.8-5.4 1.05 0 1.6.4 2.4 1l-.65 3.9-.65.15c-.55-.4-1.7-.95-2.35-.95-2.9 0-5.45 5.05-5.45 5.95v12.202l5.25.85v1.5h-14.101v-1.5l4.6-.85v-17.651c-1.35-.65-2.9-.9-4.35-.9v-1.5c2.4-.3 5.4-1.1 7.45-2zM559.117 198.463h-1.751c0-3.2-1.7-5.851-5.2-5.851-2.55 0-4.75 1.2-4.75 3.95 0 5.5 13.5 2.5 13.5 11.3 0 5.3-4.6 7.9-9.45 7.9-2.55 0-5.15-.5-7.45-1.65l-.7-6.9h1.95c.1 3.85 2.45 6.75 6.45 6.75 2.75 0 5.45-1.3 5.45-4.3 0-6.45-13.3-2.7-13.3-11.85 0-4.4 4.05-7 8.2-7 2.7 0 5.05.65 7.15 2.35zM563.27 215.214v-1.5l4.9-.85v-17.651c-1.35-.65-2.9-.9-4.35-.9v-1.5c2.399-.3 5.399-1.1 7.45-2l1.149.35v21.7l4.9.85v1.5zm6.75-30.302c-1.25 0-2.45-1.1-2.45-2.35 0-1.3 1.05-2.65 2.45-2.65 1.45 0 2.55 1.25 2.55 2.65 0 1.35-1.25 2.35-2.55 2.35zM578.11 193.712c3.2-1.3 5.7-4.55 6.65-8h1.199v7h7.5v2.5h-7.5v12.15c-.1 3.55 1.1 5.2 4 5.25 1.5 0 2.7-1.05 3.85-2.15l.7 1.2-3 3.05c-1.05 1.05-2.65.9-4 .9-2.85 0-5.8-1.45-5.8-6.25v-14.15h-3.6v-1.5zM608.65 191.362v1.5l-4.15.85 6.9 15.7c2.1-5.15 4.15-10.35 5.5-15.7l-4-.85v-1.5H623v1.5l-3.25.85c-4.05 11.2-8.05 22.65-15.7 31.852-.75.9-3.05-.05-4.2-.6v-.5c3.9-2.45 6.75-6.35 9.15-10.25l-9.301-20.501-3.4-.85v-1.5h12.35zM247.108 27.42c0-13.67-11.083-24.753-24.755-24.753-13.671 0-24.76 11.083-24.76 24.754 0 13.676 11.089 24.76 24.76 24.76 13.672 0 24.755-11.084 24.755-24.76zm112.007 187.822l-87.963-141.71-.002.428v-.427h-33.208v141.709h33.209v-.02l.01.02 38.464-23.755 14.666 23.755zm-87.964-28.506v-57.6l25.73 41.708zM205.107 73.533v141.709h-33.14l-52.428-85.03-.902-1.5v33.996c0 13.487-1.854 28.15-9.44 37.084-11.8 14.497-33.544 17.36-48.882 17.36-57.48 0-57.648-35.733-57.648-55.625V73.533h34.218v72.553c0 25.052.506 31.792 3.877 36.849 4.55 6.744 12.475 9.947 20.733 9.947 21.405 0 24.272-17.364 24.272-29.5v-20.505l-.001-69.343h33.128l53.629 88.849v-88.85h32.584z"
  />
</svg>